# xmcd CD database file
#
# Track frame offsets:
#	150
#	19200
#	30375
#	48525
#	72300
#	96000
#	123075
#	146325
#	163575
#	181575
#
# Disc length: 2633 seconds
#
# Revision: 0
# Processed by: cddbd v1.5.2PL0 Copyright (c) Steve Scherf et al.
# Submitted via: CDex 1.70beta2
#
DISCID=780a470a
DTITLE=Max Leth - Max Leth Quartet
DYEAR=1978
DGENRE=Jazz
TTITLE0=Isn't It Romantic
TTITLE1=Just You - Just Me
TTITLE2=Brevet Fra Lilian
TTITLE3=On The Sunny Side
TTITLE4=Donauwellen
TTITLE5=Besame Mucho
TTITLE6=Krystallen Den Fina
TTITLE7=They Didn't Believe Me
TTITLE8=Gone With The Wind
TTITLE9=Someone To Watch Over Me
EXTD=YEAR: 1978
EXTT0=
EXTT1=
EXTT2=
EXTT3=
EXTT4=
EXTT5=
EXTT6=
EXTT7=
EXTT8=
EXTT9=
PLAYORDER=
